<?xml version="1.0" encoding="utf-8"?>
<svg viewBox="0 0 377.343 377.343" style="enable-background:new 0 0 377.343 377.343;" xmlns="http://www.w3.org/2000/svg">
  <g style="" transform="matrix(0.701338, 0, 0, 0.701338, 53.5183, 58.922677)">
    <path d="M 313.974 40.74 L 71.805 40.74 C 60.153 40.74 50.672 50.214 50.672 61.866 L 50.672 309.255 C 50.672 320.896 60.147 330.376 71.805 330.376 L 313.975 330.376 C 325.625 330.376 335.105 320.903 335.105 309.255 L 335.105 61.866 C 335.098 50.214 325.624 40.74 313.974 40.74 Z M 353.602 -16.583 L 32.177 -16.583 C 11.212 -16.583 -5.789 0.418 -5.789 21.385 L -5.789 349.719 C -5.789 370.689 11.213 387.687 32.178 387.687 L 353.608 387.687 C 374.573 387.687 391.573 370.689 391.573 349.719 L 391.573 21.385 C 391.571 0.418 374.572 -16.583 353.602 -16.583 Z M 350.071 309.242 C 350.071 329.139 333.879 345.337 313.975 345.337 L 71.805 345.337 C 51.904 345.337 35.706 329.145 35.706 309.242 L 35.706 61.866 C 35.706 41.971 51.898 25.773 71.805 25.773 L 313.975 25.773 C 333.873 25.773 350.071 41.966 350.071 61.866 L 350.071 309.242 Z" style="fill: rgb(18, 17, 17);" transform="matrix(0.707107, 0.707107, -0.707107, 0.707107, 187.701843, -82.048316)"/>
    <text style="fill: rgb(174, 168, 168); font-family: Arial, sans-serif; font-size: 250px; white-space: pre;" x="47.342" y="275.841">S</text>
    <rect x="202.314" y="252.957" width="90.27" height="22.751" style="fill: rgb(176, 176, 176);"/>
  </g>
</svg>