<?xml version="1.0" encoding="UTF-8" standalone="no" ?>
<!DOCTYPE svg PUBLIC "-//W3C//DTD SVG 1.1//EN" "http://www.w3.org/Graphics/SVG/1.1/DTD/svg11.dtd">
<svg xmlns="http://www.w3.org/2000/svg" xmlns:xlink="http://www.w3.org/1999/xlink" version="1.1" width="500" height="500" viewBox="0 0 500 500" xml:space="preserve">
<desc>Created with Fabric.js 4.6.0</desc>
<defs>
</defs>
<g transform="matrix(0.13 0 0 -0.13 165.2 181.42)" id="jooiBiJef6MZY4ZtxZdtg"  >
<path style="stroke: none; stroke-width: 1; stroke-dasharray: none; stroke-linecap: butt; stroke-dashoffset: 0; stroke-linejoin: miter; stroke-miterlimit: 4; fill: rgb(255,211,68); fill-rule: nonzero; opacity: 1;" vector-effect="non-scaling-stroke"  transform=" translate(-864.02, -2014.33)" d="M 776 2489 C 685 2475 603 2450 568 2424 C 551 2411 531 2400 525 2400 C 518 2400 501 2390 487 2378 C 473 2365 449 2345 434 2332 C 393 2297 311 2191 282 2135 C 226 2023 203 1845 230 1723 C 239 1685 253 1665 313 1608 C 353 1570 395 1537 407 1534 C 426 1529 444 1542 505 1605 C 573 1676 595 1710 571 1710 C 549 1710 538 1914 559 1930 C 562 1933 577 1960 593 1990 C 624 2053 714 2150 741 2150 C 751 2150 761 2154 764 2159 C 772 2172 870 2179 925 2170 C 1002 2157 1077 2119 1119 2072 C 1173 2011 1200 1969 1200 1946 C 1200 1922 1237 1939 1265 1975 C 1279 1994 1290 2013 1290 2019 C 1290 2025 1298 2045 1308 2063 L 1325 2098 L 1397 2059 C 1437 2037 1479 2020 1491 2020 C 1510 2020 1512 2024 1507 2050 C 1499 2087 1465 2163 1448 2182 C 1441 2189 1424 2217 1410 2243 C 1397 2269 1381 2290 1375 2290 C 1369 2290 1351 2308 1334 2329 C 1318 2351 1292 2376 1275 2385 C 1259 2393 1234 2407 1220 2415 C 1188 2434 1125 2461 1108 2464 C 1101 2465 1079 2471 1060 2477 C 1021 2490 1024 2489 915 2495 C 871 2497 809 2494 776 2489 z M 458 2071 C 470 2065 488 2048 498 2032 C 521 2001 538 1930 523 1930 C 517 1930 508 1919 502 1905 C 496 1892 473 1872 450 1861 L 410 1842 L 358 1868 C 316 1890 304 1902 293 1934 C 281 1970 282 1976 306 2021 C 341 2085 397 2103 458 2071 z" stroke-linecap="round" />
</g>
<g transform="matrix(0.13 0 0 -0.13 240.03 204.54)" id="4A4DOPjomRWWO_6unpPpf"  >
<path style="stroke: none; stroke-width: 1; stroke-dasharray: none; stroke-linecap: butt; stroke-dashoffset: 0; stroke-linejoin: miter; stroke-miterlimit: 4; fill: rgb(127,41,175); fill-rule: nonzero; opacity: 1;" vector-effect="non-scaling-stroke"  transform=" translate(-1425.19, -1840.98)" d="M 1347 2003 C 1345 1998 1322 1956 1297 1909 L 1251 1823 L 1270 1769 C 1281 1740 1290 1707 1290 1697 C 1290 1676 1316 1664 1333 1678 C 1339 1684 1363 1691 1385 1695 C 1407 1699 1430 1706 1435 1710 C 1441 1713 1480 1727 1523 1740 C 1604 1766 1613 1777 1585 1814 C 1577 1825 1570 1842 1570 1852 C 1570 1861 1561 1884 1550 1902 C 1539 1920 1530 1931 1530 1926 C 1530 1921 1524 1923 1517 1929 C 1498 1944 1371 2010 1360 2010 C 1355 2010 1349 2007 1347 2003 z" stroke-linecap="round" />
</g>
<g transform="matrix(0.13 0 0 -0.13 352.67 234.87)" id="u4wd1t2QZNojxGyVJkzrw"  >
<path style="stroke: none; stroke-width: 1; stroke-dasharray: none; stroke-linecap: butt; stroke-dashoffset: 0; stroke-linejoin: miter; stroke-miterlimit: 4; fill: rgb(255,16,0); fill-rule: nonzero; opacity: 1;" vector-effect="non-scaling-stroke"  transform=" translate(-2270.03, -1613.48)" d="M 2075 1824 C 2064 1822 2031 1815 2003 1809 C 1926 1794 1931 1785 2052 1723 L 2108 1694 L 2064 1611 C 2039 1565 2021 1526 2023 1523 C 2026 1521 2070 1517 2122 1515 C 2226 1512 2286 1490 2353 1430 C 2372 1414 2390 1400 2393 1400 C 2399 1400 2462 1462 2543 1549 C 2577 1584 2590 1607 2588 1622 C 2582 1667 2430 1768 2315 1804 C 2265 1820 2113 1833 2075 1824 z" stroke-linecap="round" />
</g>
<g transform="matrix(0.13 0 0 -0.13 278.48 243.37)" id="KS99FZdegv0ZD5X0YgSxt"  >
<path style="stroke: none; stroke-width: 1; stroke-dasharray: none; stroke-linecap: butt; stroke-dashoffset: 0; stroke-linejoin: miter; stroke-miterlimit: 4; fill: rgb(0,162,39); fill-rule: nonzero; opacity: 1;" vector-effect="non-scaling-stroke"  transform=" translate(-1713.59, -1549.71)" d="M 1820 1762 C 1812 1759 1802 1753 1799 1748 C 1792 1737 1569 1500 1488 1417 C 1450 1379 1420 1345 1420 1340 C 1420 1331 1503 1345 1529 1360 C 1540 1365 1558 1370 1569 1370 C 1581 1370 1598 1374 1608 1379 C 1617 1384 1672 1402 1730 1420 C 1788 1438 1844 1456 1855 1460 C 1866 1465 1887 1471 1902 1474 C 1921 1478 1935 1493 1952 1527 C 1965 1554 1982 1586 1990 1600 C 2014 1642 2013 1666 1986 1683 C 1928 1722 1833 1766 1820 1762 z" stroke-linecap="round" />
</g>
<g transform="matrix(0.13 0 0 -0.13 186.33 258.1)" id="kuPk2eVhW_VWzuVOvZ2Hs"  >
<path style="stroke: none; stroke-width: 1; stroke-dasharray: none; stroke-linecap: butt; stroke-dashoffset: 0; stroke-linejoin: miter; stroke-miterlimit: 4; fill: rgb(255,16,0); fill-rule: nonzero; opacity: 1;" vector-effect="non-scaling-stroke"  transform=" translate(-1022.5, -1439.23)" d="M 1545 1678 C 1512 1667 1406 1635 1310 1605 C 1214 1576 1095 1538 1045 1521 C 896 1469 788 1483 667 1570 L 621 1603 L 545 1524 C 503 1480 456 1430 442 1411 L 415 1377 L 464 1335 C 557 1252 750 1180 877 1180 C 941 1180 967 1186 1119 1233 L 1224 1265 L 1317 1360 C 1531 1579 1630 1684 1630 1692 C 1630 1703 1613 1701 1545 1678 z" stroke-linecap="round" />
</g>
<g transform="matrix(0.13 0 0 -0.13 330.73 318.37)" id="MBQwz-x4ImWLMW0aXn6eZ"  >
<path style="stroke: none; stroke-width: 1; stroke-dasharray: none; stroke-linecap: butt; stroke-dashoffset: 0; stroke-linejoin: miter; stroke-miterlimit: 4; fill: rgb(0,118,172); fill-rule: nonzero; opacity: 1;" vector-effect="non-scaling-stroke"  transform=" translate(-2105.44, -987.25)" d="M 2543 1430 C 2534 1414 2522 1400 2519 1400 C 2515 1400 2495 1380 2476 1356 L 2440 1313 L 2455 1270 C 2463 1247 2470 1211 2470 1191 C 2469 1142 2446 1057 2431 1052 C 2425 1050 2422 1045 2424 1041 C 2432 1029 2376 952 2334 916 C 2275 866 2218 841 2158 839 C 2089 836 2057 843 1990 873 C 1883 922 1832 976 1804 1073 C 1795 1101 1774 1170 1758 1225 C 1741 1280 1726 1331 1724 1338 C 1720 1352 1684 1354 1675 1340 C 1672 1335 1653 1330 1634 1330 C 1615 1330 1600 1326 1600 1320 C 1600 1315 1588 1310 1573 1310 C 1557 1310 1532 1303 1516 1295 C 1501 1287 1478 1280 1465 1280 C 1421 1280 1418 1261 1446 1154 C 1461 1100 1482 1019 1493 975 C 1504 931 1517 893 1520 890 C 1523 887 1532 869 1540 850 C 1548 831 1560 811 1568 807 C 1575 802 1584 790 1588 780 C 1598 754 1709 640 1724 640 C 1732 640 1743 633 1751 624 C 1768 604 1842 566 1922 538 C 1974 520 2007 516 2105 516 C 2214 516 2320 531 2345 550 C 2351 554 2371 561 2390 565 C 2409 569 2436 581 2449 591 C 2462 602 2479 610 2487 610 C 2494 610 2503 617 2506 625 C 2509 633 2521 642 2532 646 C 2550 651 2660 756 2660 768 C 2660 771 2670 787 2683 804 C 2749 891 2784 1022 2783 1177 L 2783 1279 L 2719 1339 C 2684 1373 2641 1414 2624 1430 C 2586 1468 2566 1468 2543 1430 z M 2646 1114 C 2664 1106 2681 1091 2685 1080 C 2688 1069 2696 1060 2701 1060 C 2713 1060 2713 1008 2700 975 C 2685 936 2659 913 2615 901 C 2583 892 2571 893 2550 907 C 2499 940 2482 964 2479 1009 C 2476 1045 2480 1058 2505 1086 C 2521 1105 2543 1120 2552 1120 C 2562 1120 2570 1125 2570 1131 C 2570 1142 2589 1138 2646 1114 z" stroke-linecap="round" />
</g>
</svg>